<svg width="15" height="24" viewBox="0 0 15 24" fill="none" xmlns="http://www.w3.org/2000/svg">
<path d="M10.8106 20.219H1.375C1.16791 20.219 1 20.3329 1 20.4733V21.66C1 21.8005 1.16791 21.9143 1.375 21.9143H10.8106V22.8904C10.8106 23.3435 11.6185 23.5704 12.091 23.25L14.7803 21.4263C15.0732 21.2277 15.0732 20.9056 14.7803 20.707L12.091 18.8833C11.6185 18.5629 10.8106 18.7898 10.8106 19.243V20.219V20.219Z" fill="white"/>
<path d="M0.965637 12.6635C0.965637 13.3698 1.62048 13.9428 2.42761 13.9428H13.1487C13.9558 13.9428 14.6107 13.3698 14.6107 12.6635V5.41462H0.965637V12.6635ZM10.7121 7.44005C10.7121 7.26416 10.8766 7.12025 11.0776 7.12025H12.2959C12.4969 7.12025 12.6614 7.26416 12.6614 7.44005V8.50607C12.6614 8.68196 12.4969 8.82588 12.2959 8.82588H11.0776C10.8766 8.82588 10.7121 8.68196 10.7121 8.50607V7.44005ZM10.7121 10.8513C10.7121 10.6754 10.8766 10.5315 11.0776 10.5315H12.2959C12.4969 10.5315 12.6614 10.6754 12.6614 10.8513V11.9173C12.6614 12.0932 12.4969 12.2371 12.2959 12.2371H11.0776C10.8766 12.2371 10.7121 12.0932 10.7121 11.9173V10.8513ZM6.81351 7.44005C6.81351 7.26416 6.97798 7.12025 7.179 7.12025H8.39731C8.59833 7.12025 8.7628 7.26416 8.7628 7.44005V8.50607C8.7628 8.68196 8.59833 8.82588 8.39731 8.82588H7.179C6.97798 8.82588 6.81351 8.68196 6.81351 8.50607V7.44005ZM6.81351 10.8513C6.81351 10.6754 6.97798 10.5315 7.179 10.5315H8.39731C8.59833 10.5315 8.7628 10.6754 8.7628 10.8513V11.9173C8.7628 12.0932 8.59833 12.2371 8.39731 12.2371H7.179C6.97798 12.2371 6.81351 12.0932 6.81351 11.9173V10.8513ZM2.91493 7.44005C2.91493 7.26416 3.0794 7.12025 3.28042 7.12025H4.49873C4.69975 7.12025 4.86422 7.26416 4.86422 7.44005V8.50607C4.86422 8.68196 4.69975 8.82588 4.49873 8.82588H3.28042C3.0794 8.82588 2.91493 8.68196 2.91493 8.50607V7.44005ZM2.91493 10.8513C2.91493 10.6754 3.0794 10.5315 3.28042 10.5315H4.49873C4.69975 10.5315 4.86422 10.6754 4.86422 10.8513V11.9173C4.86422 12.0932 4.69975 12.2371 4.49873 12.2371H3.28042C3.0794 12.2371 2.91493 12.0932 2.91493 11.9173V10.8513ZM13.1487 2.00336H11.6867V0.724137C11.6867 0.489613 11.4674 0.297729 11.1994 0.297729H10.2248C9.95674 0.297729 9.73745 0.489613 9.73745 0.724137V2.00336H5.83886V0.724137C5.83886 0.489613 5.61957 0.297729 5.35154 0.297729H4.3769C4.10887 0.297729 3.88957 0.489613 3.88957 0.724137V2.00336H2.42761C1.62048 2.00336 0.965637 2.57634 0.965637 3.28258V4.5618H14.6107V3.28258C14.6107 2.57634 13.9558 2.00336 13.1487 2.00336Z" fill="white"/>
</svg>
